<svg width="469" height="386" viewBox="0 0 469 386" fill="none" xmlns="http://www.w3.org/2000/svg">
<g clip-path="url(#clip0)">
<path opacity="0.1" d="M275.052 65.2321C245.376 64.1641 217.108 54.2478 190.119 43.3963C163.13 32.5449 136.398 20.521 107.433 14.7724C88.8029 11.0746 67.4952 10.5524 52.4876 20.8912C38.0394 30.8597 33.3716 48.0198 30.8634 63.96C28.9743 75.9507 27.8646 88.568 33.0414 99.7944C36.6317 107.589 43.0098 114.14 47.4162 121.63C62.7632 147.605 51.919 179.638 35.2882 205C27.4932 216.901 18.4373 228.26 12.4215 240.915C6.40557 253.571 3.61773 268.092 8.88162 281.013C14.1042 293.829 26.5441 303.437 40.0156 310.201C67.3851 323.944 99.6241 327.874 131.084 330.1C200.702 335.033 270.687 332.896 340.488 330.76C366.322 329.968 392.265 329.165 417.677 325.031C431.79 322.733 446.358 319.092 456.606 310.292C469.61 299.122 472.833 280.206 464.121 266.202C449.499 242.71 409.098 236.876 398.864 211.66C393.242 197.785 399.02 182.329 407.19 169.455C424.725 141.847 454.112 117.624 455.661 86.0663C456.725 64.3872 442.593 42.6843 420.749 32.4262C397.855 21.6365 366.097 23.0036 349.214 40.7998C331.818 59.1371 301.252 66.172 275.052 65.2321Z" fill="#6C63FF"/>
<path d="M199.666 327.774L42.721 326.981L27.1265 289.115L82.2689 284.971L72.6582 243.455L181.723 228.82L77.2847 191.234L86.5103 188.965L254.446 217.328L245.197 282.118L231.978 317.725L199.666 327.774Z" fill="#6C63FF"/>
<path d="M45.1279 311.123C45.1279 311.123 54.757 309.528 60.5344 316.572C60.5344 316.572 56.2976 320.028 47.1821 315.243L45.1279 311.123Z" fill="#6C63FF"/>
<path d="M44.1195 310.965C44.1195 310.965 37.9752 318.793 41.0015 327.508C41.0015 327.508 46.0086 325.433 46.5543 314.867L44.1195 310.965Z" fill="#6C63FF"/>
<path d="M38.5986 298.097C38.5986 298.097 42.4503 290.782 57.8568 301.021C57.8568 301.021 55.8026 305.939 48.998 305.54C42.1935 305.141 40.3961 301.951 38.5986 298.097Z" fill="#6C63FF"/>
<path d="M37.604 297.57C37.604 297.57 29.6118 296.621 28.8369 315.561C28.8369 315.561 33.9036 316.648 37.5031 310.658C41.1025 304.667 39.6261 301.306 37.604 297.57Z" fill="#6C63FF"/>
<path d="M32.9497 282.46C32.9497 282.46 37.4433 269.568 53.7485 278.739C53.7485 278.739 50.0253 290.568 34.6187 286.847L32.9497 282.46Z" fill="#6C63FF"/>
<path d="M27.9429 263.188C27.9429 263.188 36.4164 250.163 51.4378 262.239C51.4378 262.239 46.1739 274.467 29.2267 267.821L27.9429 263.188Z" fill="#6C63FF"/>
<path d="M26.145 244.846C26.145 244.846 36.0309 232.879 50.9055 244.846C50.9055 244.846 41.5332 255.346 26.145 247.903V244.846Z" fill="#6C63FF"/>
<path d="M24.6045 227.031C24.6045 227.031 34.6187 214.537 48.8697 226.366C48.8697 226.366 37.5716 237.398 24.6045 229.955V227.031Z" fill="#6C63FF"/>
<path d="M25.5034 211.214C25.5034 211.214 36.0495 195.132 49.3835 206.031C49.3835 206.031 38.0854 219.854 25.5034 214.271V211.214Z" fill="#6C63FF"/>
<path d="M27.9429 192.738C27.9429 192.738 39.1126 176.789 52.0797 189.017C52.0797 189.017 38.8558 202.84 27.9429 195.662V192.738Z" fill="#6C63FF"/>
<path d="M31.6656 176.224C31.6656 176.224 44.8896 161.234 56.4261 167.205C56.4261 167.205 42.6474 183.126 31.0879 180.202L31.6656 176.224Z" fill="#6C63FF"/>
<path d="M36.2877 160.57C36.2877 160.57 51.5475 142.209 60.4246 148.342C60.4246 148.342 49.1815 162.582 35.2056 164.006L36.2877 160.57Z" fill="#6C63FF"/>
<path d="M42.9593 142.413C42.9593 142.413 56.3162 127.422 66.0737 131.144C66.0737 131.144 54.6472 146.694 41.1665 147.093L42.9593 142.413Z" fill="#6C63FF"/>
<path d="M48.9984 125.428C48.9984 125.428 63.763 111.073 70.1824 113.599C70.1824 113.599 59.5262 129.548 48.3564 128.618L48.9984 125.428Z" fill="#6C63FF"/>
<path d="M54.9043 109.744C54.9043 109.744 67.6147 92.5929 74.5522 93.9221C74.5522 93.9221 66.8444 109.212 54.9043 111.486V109.744Z" fill="#6C63FF"/>
<path d="M61.3142 88.5962C61.3142 88.5962 72.5481 75.452 78.619 75.4805C78.619 75.4805 69.7511 93.0441 60.8511 92.8827L61.3142 88.5962Z" fill="#6C63FF"/>
<path d="M65.1111 74.5169L75.9645 47.1367C75.9645 47.1367 76.5055 71.8871 63.731 79.5961L65.1111 74.5169Z" fill="#6C63FF"/>
<path d="M69.5172 44.3233C69.5172 44.3233 71.3146 21.4575 70.1592 19.5967C70.1592 19.5967 77.9175 38.6081 69.4438 54.4248L69.5172 44.3233Z" fill="#6C63FF"/>
<path d="M32.528 282.157C32.528 282.157 21.2757 274.937 13.9897 292.6C13.9897 292.6 24.004 299.483 33.8531 286.662L32.528 282.157Z" fill="#6C63FF"/>
<path d="M27.5806 262.453C27.5806 262.453 13.779 255.935 7.08447 274.377C7.08447 274.377 17.7452 281.972 28.837 267.114L27.5806 262.453Z" fill="#6C63FF"/>
<path d="M25.5031 245.942C25.5031 245.942 15.6173 233.975 0.742676 245.942C0.742676 245.942 10.115 256.442 25.5031 248.999V245.942Z" fill="#6C63FF"/>
<path d="M24.2653 227.031C24.2653 227.031 14.251 214.537 0 226.366C0 226.366 11.2981 237.398 24.2653 229.955V227.031Z" fill="#6C63FF"/>
<path d="M25.5031 211.67C25.5031 211.67 18.4784 193.656 3.20947 201.403C3.20947 201.403 11.463 217.376 24.8795 214.661L25.5031 211.67Z" fill="#6C63FF"/>
<path d="M28.8277 192.649C28.8277 192.649 21.8443 174.321 6.35986 182.818C6.35986 182.818 15.8422 199.618 28.1399 195.478L28.8277 192.649Z" fill="#6C63FF"/>
<path d="M33.1558 176.315C33.1558 176.315 30.4047 156.221 17.5659 154.422C17.5659 154.422 20.2896 175.612 31.4272 179.937L33.1558 176.315Z" fill="#6C63FF"/>
<path d="M36.6131 160.607C36.6131 160.607 35.5402 136.398 24.9253 135.553C24.9253 135.553 25.2829 153.928 35.4164 164.034L36.6131 160.607Z" fill="#6C63FF"/>
<path d="M44.06 141.734C44.06 141.734 40.8961 121.602 30.7627 119.144C30.7627 119.144 32.0191 138.639 43.0558 146.676L44.06 141.734Z" fill="#6C63FF"/>
<path d="M50.1995 125.595C50.1995 125.595 50.094 104.623 43.9039 101.542C43.9039 101.542 40.066 120.53 48.4067 128.272L50.1995 125.595Z" fill="#6C63FF"/>
<path d="M55.3764 109.507C55.3764 109.507 54.5097 87.9129 48.0995 84.8701C48.0995 84.8701 45.9078 101.959 54.418 110.921L55.3764 109.507Z" fill="#6C63FF"/>
<path d="M62.2086 90.3196C62.2086 90.3196 62.1719 72.7561 57.5958 68.6357C57.5958 68.6357 53.0472 87.875 59.8196 93.8513L62.2086 90.3196Z" fill="#6C63FF"/>
<path d="M64.5744 73.6534L60.1221 44.4219C60.1221 44.4219 54.0741 68.3748 64.7853 78.932L64.5744 73.6534Z" fill="#6C63FF"/>
<path d="M65.4408 44.5975C65.4408 44.5975 54.0143 24.9453 54.2482 22.7617C54.2482 22.7617 55.4633 43.3586 69.8381 53.6167L65.4408 44.5975Z" fill="#6C63FF"/>
<path d="M66.78 38.7925C66.78 38.7925 55.9954 10.8806 51.1167 8.62109C51.1167 8.62109 66.5232 16.7288 67.6787 37.995L66.78 38.7925Z" fill="#6C63FF"/>
<path d="M60.7963 93.0489L60.0581 92.8163C69.1599 62.0895 71.4296 42.499 66.4546 37.586L66.9819 37.0068C72.2595 42.1905 70.1182 61.5674 60.7963 93.0489Z" fill="#444053"/>
<path d="M35.7329 164.994L34.6416 164.591C35.6091 161.776 36.6499 158.918 37.7412 156.103C47.2419 131.59 55.3303 108.786 60.5163 91.2794L61.4654 90.8047C56.2703 108.345 48.324 132.022 38.8142 156.568C37.7275 159.331 36.6912 162.175 35.7329 164.994Z" fill="#444053"/>
<path d="M58.6961 334.116C58.5494 333.95 43.7986 316.752 33.5138 287.392C27.4875 270.203 24.1337 252.133 23.5775 233.856C22.8714 211.01 27.5025 185.5 35.435 162.325L36.2971 163.37C18.4879 215.381 25.5629 259.95 34.949 286.789C45.1237 315.883 59.7095 332.891 59.8516 333.062L58.6961 334.116Z" fill="#444053"/>
<path d="M289.207 297.604C289.207 297.604 278.812 310.738 287.066 330.595L204.072 367.858L196.108 369.586L192.439 352.972L194.893 332.004V320.545L289.207 297.604Z" fill="#D5D6DB"/>
<path d="M27.1265 289.116L141.997 267.437L294.205 292.538L199.666 327.775L27.1265 289.116Z" fill="#6C63FF"/>
<path d="M27.1265 289.116L141.997 267.437L294.205 292.538L199.666 327.775L27.1265 289.116Z" fill="#6C63FF"/>
<path d="M27.1266 289.11C27.1266 289.11 16.3833 310.182 28.7636 329.644L199.106 367.857C199.106 367.857 188.533 351.072 199.652 327.774L27.1266 289.11Z" fill="#6C63FF"/>
<path opacity="0.1" d="M27.1266 289.11C27.1266 289.11 16.3833 310.182 28.7636 329.644L199.106 367.857C199.106 367.857 188.533 351.072 199.652 327.774L27.1266 289.11Z" fill="black"/>
<path opacity="0.1" d="M32.2024 296.417C32.2024 296.417 26.0627 311.835 32.2024 321.813V296.417Z" fill="black"/>
<path d="M199.107 367.858L294.205 325.848C294.205 325.848 299.524 327.034 296.085 331.069C292.646 335.104 200.941 371.893 200.941 371.893L28.7637 329.645L199.107 367.858Z" fill="#6C63FF"/>
<path opacity="0.1" d="M199.107 367.858L294.205 325.848C294.205 325.848 299.524 327.034 296.085 331.069C292.646 335.104 200.941 371.893 200.941 371.893L28.7637 329.645L199.107 367.858Z" fill="black"/>
<path opacity="0.1" d="M191.312 332.019C191.312 332.019 182.141 343.411 191.312 360.5V332.019Z" fill="black"/>
<path opacity="0.1" d="M235.709 331.826L194.575 346.033L194.72 346.483L235.854 332.276L235.709 331.826Z" fill="black"/>
<path opacity="0.1" d="M243.948 330.412L194.562 349.854L194.725 350.297L244.111 330.855L243.948 330.412Z" fill="black"/>
<path opacity="0.1" d="M251.515 330.344L194.838 354.36L195.012 354.8L251.688 330.783L251.515 330.344Z" fill="black"/>
<path opacity="0.1" d="M259.742 328.288L195.499 358.331L195.688 358.764L259.931 328.72L259.742 328.288Z" fill="black"/>
<path opacity="0.1" d="M266.655 328.297L196.008 360.266L196.191 360.701L266.839 328.732L266.655 328.297Z" fill="black"/>
<path opacity="0.1" d="M281.775 325.638L197.073 363.512L197.255 363.948L281.957 326.074L281.775 325.638Z" fill="black"/>
<path opacity="0.3" d="M69.8013 291.433L150.502 273.869L199.665 283.6L133.537 305.673L69.8013 291.433Z" fill="white"/>
<path d="M294.205 292.538C294.205 292.538 298.377 294.28 295.929 296.972C293.48 299.663 199.652 327.774 199.652 327.774L294.205 292.538Z" fill="#6C63FF"/>
<path d="M334.734 251.947C334.734 251.947 324.344 265.077 332.597 284.938L249.604 322.202L241.639 323.939L237.971 307.325L240.461 286.362V274.889L334.734 251.947Z" fill="#D5D6DB"/>
<path d="M72.6582 243.456L187.524 221.781L339.736 246.883L245.197 282.119L72.6582 243.456Z" fill="#3A3768"/>
<path d="M72.6401 243.456C72.6401 243.456 61.8922 264.528 74.2724 283.99L244.615 322.203C244.615 322.203 234.046 305.403 245.179 282.115L72.6401 243.456Z" fill="#3A3768"/>
<path opacity="0.1" d="M72.6401 243.456C72.6401 243.456 61.8922 264.528 74.2724 283.99L244.615 322.203C244.615 322.203 234.046 305.403 245.179 282.115L191.312 270.044L72.6401 243.456Z" fill="black"/>
<path opacity="0.1" d="M77.7292 250.76C77.7292 250.76 71.594 266.173 77.7292 276.156V250.76Z" fill="black"/>
<path d="M244.633 322.202L339.737 280.191C339.737 280.191 345.051 281.378 341.612 285.413C338.173 289.448 246.468 326.237 246.468 326.237L74.2905 283.989L244.633 322.202Z" fill="#3A3768"/>
<path opacity="0.1" d="M244.633 322.202L339.737 280.191C339.737 280.191 345.051 281.378 341.612 285.413C338.173 289.448 246.468 326.237 246.468 326.237L74.2905 283.989L244.633 322.202Z" fill="black"/>
<path opacity="0.1" d="M236.838 286.363C236.838 286.363 227.668 297.756 236.838 314.845V286.363Z" fill="black"/>
<path opacity="0.1" d="M281.24 286.175L240.106 300.382L240.251 300.832L281.385 286.625L281.24 286.175Z" fill="black"/>
<path opacity="0.1" d="M289.485 284.76L240.099 304.201L240.262 304.645L289.648 285.203L289.485 284.76Z" fill="black"/>
<path opacity="0.1" d="M297.044 284.685L240.367 308.701L240.541 309.14L297.218 285.124L297.044 284.685Z" fill="black"/>
<path opacity="0.1" d="M305.278 282.629L241.035 312.673L241.223 313.105L305.467 283.062L305.278 282.629Z" fill="black"/>
<path opacity="0.1" d="M312.184 282.632L241.537 314.601L241.72 315.036L312.368 283.067L312.184 282.632Z" fill="black"/>
<path opacity="0.1" d="M327.307 279.974L242.605 317.848L242.787 318.283L327.489 280.41L327.307 279.974Z" fill="black"/>
<path opacity="0.45" d="M115.333 245.775L196.034 228.212L245.198 237.943L179.069 260.016L115.333 245.775Z" fill="white"/>
<path d="M339.736 246.883C339.736 246.883 343.904 248.625 341.461 251.312C339.017 253.998 245.197 282.114 245.197 282.114L339.736 246.883Z" fill="#3A3768"/>
<path d="M339.044 199.717C339.044 199.717 328.649 223.295 336.903 243.151L253.909 269.971L245.963 271.713L242.295 255.099L244.748 234.132V222.659L339.044 199.717Z" fill="#D5D6DB"/>
<path d="M76.9819 191.23L191.852 169.551L344.065 194.652L249.521 229.889L76.9819 191.23Z" fill="#6C63FF"/>
<path d="M76.9822 191.225C76.9822 191.225 66.2205 212.296 78.6008 231.759L248.944 269.971C248.944 269.971 238.37 253.172 249.503 229.888L76.9822 191.225Z" fill="#6C63FF"/>
<path opacity="0.1" d="M76.9822 191.225C76.9822 191.225 66.2205 212.296 78.6008 231.759L248.944 269.971C248.944 269.971 238.37 253.172 249.503 229.888L76.9822 191.225Z" fill="black"/>
<path opacity="0.1" d="M82.0579 198.531C82.0579 198.531 75.9182 213.949 82.0579 223.927V198.531Z" fill="black"/>
<path d="M248.962 269.971L344.06 238.404C344.06 238.404 349.379 239.591 345.94 243.626C342.501 247.661 250.796 274.006 250.796 274.006L78.6191 231.759L248.962 269.971Z" fill="#6C63FF"/>
<path opacity="0.1" d="M248.962 269.971L344.06 238.404C344.06 238.404 349.379 239.591 345.94 243.626C342.501 247.661 250.796 274.006 250.796 274.006L78.6191 231.759L248.962 269.971Z" fill="black"/>
<path opacity="0.1" d="M241.167 234.133C241.167 234.133 231.997 245.525 241.167 262.614V234.133Z" fill="black"/>
<path opacity="0.1" d="M285.57 233.943L244.436 248.15L244.581 248.601L285.715 234.394L285.57 233.943Z" fill="black"/>
<path opacity="0.1" d="M293.811 232.53L244.425 251.972L244.588 252.415L293.974 232.974L293.811 232.53Z" fill="black"/>
<path opacity="0.1" d="M301.367 232.457L244.69 256.474L244.864 256.913L301.541 232.897L301.367 232.457Z" fill="black"/>
<path opacity="0.1" d="M309.607 230.398L245.363 260.441L245.552 260.874L309.795 230.83L309.607 230.398Z" fill="black"/>
<path opacity="0.1" d="M316.515 230.407L245.867 262.375L246.051 262.81L316.698 230.842L316.515 230.407Z" fill="black"/>
<path opacity="0.1" d="M331.637 227.751L246.935 265.624L247.116 266.06L331.818 228.186L331.637 227.751Z" fill="black"/>
<path opacity="0.3" d="M119.657 193.547L200.358 175.983L249.521 185.715L183.393 207.788L119.657 193.547Z" fill="white"/>
<path d="M344.061 194.652C344.061 194.652 348.233 196.394 345.785 199.086C343.336 201.777 249.521 229.889 249.521 229.889L344.061 194.652Z" fill="#6C63FF"/>
<path d="M142.336 50.5556C142.336 50.5556 124.912 49.4685 126.948 62.1238C126.948 62.1238 126.54 64.3596 128.498 65.3755C128.498 65.3755 128.53 64.4261 130.286 64.7536C130.912 64.8651 131.55 64.8969 132.184 64.8485C133.039 64.788 133.852 64.4414 134.5 63.8612C134.5 63.8612 139.401 61.7631 141.309 53.4655C141.309 53.4655 142.721 51.6569 142.684 51.1917L139.731 52.4923C139.731 52.4923 140.736 54.6902 139.947 56.5177C139.947 56.5177 139.851 52.573 139.282 52.6632C139.167 52.6632 137.755 53.4275 137.755 53.4275C137.755 53.4275 139.484 57.2582 138.177 60.0399C138.177 60.0399 138.672 55.3215 137.214 53.7028L135.142 54.956C135.142 54.956 137.164 58.9102 135.793 62.1381C135.793 62.1381 136.146 57.187 134.706 55.2598L132.826 56.7788C132.826 56.7788 134.729 60.676 133.569 63.3533C133.569 63.3533 133.418 57.5905 132.423 57.1538C132.423 57.1538 130.776 58.6538 130.529 59.2709C130.529 59.2709 131.831 62.1191 131.019 63.5954C131.019 63.5954 130.529 59.7551 130.102 59.7361C130.102 59.7361 128.465 62.2805 128.296 64.0083C128.375 62.3975 128.86 60.8362 129.703 59.4798C128.76 59.6646 127.89 60.1316 127.2 60.8232C127.2 60.8232 127.452 59.0241 130.112 58.8674C130.112 58.8674 131.464 56.9354 131.826 56.8215C131.826 56.8215 129.181 56.5889 127.58 57.3247C127.58 57.3247 128.993 55.63 132.308 56.3753L134.142 54.8088C134.142 54.8088 130.666 54.3341 129.19 54.861C129.19 54.861 130.891 53.361 134.642 54.4528L136.664 53.2044C136.664 53.2044 133.697 52.5445 131.932 52.7819C131.932 52.7819 133.794 51.7423 137.255 52.8673L138.695 52.198C138.695 52.198 136.526 51.7566 135.889 51.6854C135.252 51.6142 135.22 51.4338 135.22 51.4338C136.596 51.1997 138.008 51.364 139.3 51.9085C139.3 51.9085 142.395 50.755 142.336 50.5556Z" fill="#6C63FF"/>
<path opacity="0.1" d="M387.465 102.572C387.465 102.572 370.041 101.485 372.077 114.14C372.077 114.14 371.669 116.376 373.626 117.392C373.626 117.392 373.659 116.443 375.415 116.77C376.042 116.879 376.679 116.911 377.313 116.865C378.16 116.801 378.964 116.454 379.606 115.878C379.606 115.878 384.512 113.78 386.415 105.482C386.415 105.482 387.827 103.673 387.79 103.208L384.847 104.509C384.847 104.509 385.851 106.707 385.062 108.534C385.062 108.534 384.966 104.59 384.402 104.68C384.287 104.68 382.87 105.444 382.87 105.444C382.87 105.444 384.599 109.275 383.297 112.057C383.297 112.057 383.792 107.338 382.329 105.719L380.257 106.973C380.257 106.973 382.279 110.927 380.908 114.155C380.908 114.155 381.261 109.204 379.821 107.276L377.946 108.795C377.946 108.795 379.844 112.693 378.684 115.37C378.684 115.37 378.533 109.607 377.538 109.17C377.538 109.17 375.896 110.67 375.644 111.288C375.644 111.288 376.946 114.136 376.139 115.612C376.139 115.612 375.644 111.772 375.222 111.753C375.222 111.753 373.585 114.297 373.416 116.025C373.495 114.413 373.982 112.852 374.828 111.496C373.883 111.682 373.011 112.149 372.32 112.84C372.32 112.84 372.576 111.041 375.231 110.884C375.231 110.884 376.584 108.952 376.946 108.833C376.946 108.833 374.305 108.606 372.7 109.341C372.7 109.341 374.112 107.647 377.428 108.392L379.262 106.825C379.262 106.825 375.781 106.351 374.31 106.878C374.31 106.878 376.006 105.378 379.762 106.469L381.779 105.221C381.779 105.221 378.812 104.561 377.047 104.798C377.047 104.798 378.909 103.759 382.371 104.884L383.815 104.215C383.815 104.215 381.641 103.773 381.004 103.702C380.367 103.631 380.335 103.45 380.335 103.45C381.711 103.213 383.124 103.378 384.416 103.925C384.416 103.925 387.52 102.772 387.465 102.572Z" fill="#6C63FF"/>
<path opacity="0.1" d="M171.682 128.736C171.682 128.736 164.089 112.44 154.423 120.472C154.423 120.472 152.337 121.194 152.438 123.458C152.438 123.458 153.24 123.026 153.813 124.773C154.027 125.39 154.31 125.98 154.657 126.529C155.126 127.274 155.816 127.84 156.624 128.143C156.624 128.143 160.783 131.551 168.711 129.225C168.711 129.225 170.925 129.619 171.288 129.344L168.757 127.317C168.757 127.317 167.381 129.297 165.464 129.472C165.464 129.472 168.747 127.464 168.394 126.999C168.321 126.904 167.019 125.988 167.019 125.988C167.019 125.988 164.63 129.42 161.649 129.596C161.649 129.596 165.868 127.744 166.519 125.632L164.456 124.369C164.456 124.369 162.103 128.129 158.715 128.461C158.715 128.461 163.062 126.368 163.983 124.127L161.792 123.178C161.792 123.178 159.43 126.795 156.606 127.056C156.606 127.056 161.393 124.108 161.273 122.993C161.273 122.993 159.205 122.243 158.564 122.314C158.564 122.314 156.812 124.872 155.161 124.872C155.161 124.872 158.155 122.551 157.972 122.176C157.972 122.176 155.028 121.939 153.478 122.651C154.875 121.932 156.429 121.605 157.986 121.701C157.368 120.939 156.549 120.38 155.629 120.092C155.629 120.092 157.27 119.447 158.697 121.768C158.697 121.768 160.989 122.048 161.26 122.319C161.26 122.319 160.164 119.822 158.765 118.735C158.765 118.735 160.884 119.176 161.851 122.532L164.075 123.444C164.075 123.444 162.796 120.064 161.617 118.996C161.617 118.996 163.708 119.798 164.621 123.743L166.657 124.958C166.657 124.958 165.772 121.953 164.708 120.477C164.708 120.477 166.491 121.654 167.23 125.328L168.5 126.306C168.5 126.306 167.812 124.127 167.583 123.52C167.354 122.912 167.468 122.789 167.468 122.789C168.34 123.916 168.893 125.271 169.064 126.705C169.064 126.705 171.517 128.879 171.682 128.736Z" fill="#6C63FF"/>
<path opacity="0.1" d="M347.655 79.5489C347.655 79.5489 340.067 63.2527 330.396 71.2845C330.396 71.2845 328.315 72.0061 328.411 74.2704C328.411 74.2704 329.218 73.8431 329.787 75.5852C330 76.2053 330.285 76.7966 330.635 77.3464C331.102 78.0897 331.791 78.6547 332.597 78.9556C332.597 78.9556 336.761 82.3638 344.684 80.0426C344.684 80.0426 346.899 80.4319 347.266 80.1565L344.748 78.1249C344.748 78.1249 343.373 80.1091 341.461 80.2847C341.461 80.2847 344.739 78.272 344.386 77.8068C344.313 77.7119 343.01 76.7957 343.01 76.7957C343.01 76.7957 340.626 80.2277 337.641 80.4034C337.641 80.4034 341.864 78.5521 342.515 76.4444L340.42 75.1913C340.42 75.1913 338.072 78.9461 334.679 79.2831C334.679 79.2831 339.026 77.185 339.952 74.9444L337.756 73.995C337.756 73.995 335.394 77.6169 332.574 77.8733C332.574 77.8733 337.357 74.9254 337.238 73.8146C337.238 73.8146 335.174 73.0599 334.532 73.1358C334.532 73.1358 332.781 75.6897 331.125 75.6897C331.125 75.6897 334.124 73.3684 333.941 72.9934C333.941 72.9934 330.997 72.7561 329.443 73.4681C330.839 72.7493 332.393 72.422 333.95 72.5187C333.335 71.7558 332.517 71.1964 331.598 70.9095C331.598 70.9095 333.239 70.264 334.665 72.5852C334.665 72.5852 336.958 72.87 337.228 73.1406C337.228 73.1406 336.133 70.639 334.729 69.5519C334.729 69.5519 336.848 69.9981 337.815 73.3732L340.044 74.2846C340.044 74.2846 338.764 70.9 337.586 69.832C337.586 69.832 339.677 70.6342 340.585 74.5789L342.625 75.7941C342.625 75.7941 341.736 72.7941 340.672 71.313C340.672 71.313 342.46 72.4903 343.194 76.1644L344.464 77.1422C344.464 77.1422 343.781 74.9634 343.547 74.3558C343.313 73.7482 343.432 73.6295 343.432 73.6295C344.302 74.7576 344.853 76.1132 345.023 77.5457C345.023 77.5457 347.513 79.7008 347.655 79.5489Z" fill="#6C63FF"/>
<path opacity="0.1" d="M371.907 160.157C371.907 160.157 364.318 143.856 354.634 151.888C354.634 151.888 352.552 152.609 352.649 154.873C352.649 154.873 353.456 154.446 354.024 156.188C354.237 156.808 354.52 157.399 354.868 157.949C355.335 158.693 356.025 159.258 356.831 159.559C356.831 159.559 360.994 162.972 368.922 160.646C368.922 160.646 371.132 161.04 371.499 160.76L368.968 158.733C368.968 158.733 367.592 160.717 365.676 160.892C365.676 160.892 368.954 158.88 368.601 158.415C368.528 158.32 367.225 157.403 367.225 157.403C367.225 157.403 364.841 160.835 361.856 161.016C361.856 161.016 366.079 159.16 366.73 157.052L364.662 155.789C364.662 155.789 362.314 159.549 358.921 159.881C358.921 159.881 363.268 157.783 364.194 155.543L361.998 154.593C361.998 154.593 359.637 158.21 356.817 158.472C356.817 158.472 361.604 155.524 361.485 154.408C361.485 154.408 359.417 153.653 358.775 153.729C358.775 153.729 357.023 156.283 355.368 156.283C355.368 156.283 358.367 153.962 358.183 153.587C358.183 153.587 355.239 153.35 353.685 154.062C355.083 153.343 356.639 153.016 358.197 153.112C357.581 152.348 356.761 151.789 355.84 151.503C355.84 151.503 357.482 150.853 358.908 153.179C358.908 153.179 361.2 153.459 361.471 153.729C361.471 153.729 360.375 151.232 358.976 150.141C358.976 150.141 361.095 150.587 362.062 153.962L364.286 154.873C364.286 154.873 363.007 151.489 361.828 150.426C361.828 150.426 363.919 151.223 364.827 155.172L366.868 156.383C366.868 156.383 365.978 153.383 364.914 151.902C364.914 151.902 366.703 153.079 367.441 156.758L368.711 157.707C368.711 157.707 368.023 155.528 367.794 154.921C367.565 154.313 367.679 154.195 367.679 154.195C368.551 155.321 369.102 156.678 369.27 158.111C369.27 158.111 371.765 160.299 371.907 160.157Z" fill="#6C63FF"/>
<path opacity="0.1" d="M92.5992 372.234C98.4211 372.234 103.141 371.688 103.141 371.014C103.141 370.34 98.4211 369.794 92.5992 369.794C86.7772 369.794 82.0576 370.34 82.0576 371.014C82.0576 371.688 86.7772 372.234 92.5992 372.234Z" fill="#6C63FF"/>
<path opacity="0.1" d="M23.4947 351.5C29.3166 351.5 34.0362 350.953 34.0362 350.28C34.0362 349.606 29.3166 349.06 23.4947 349.06C17.6727 349.06 12.9531 349.606 12.9531 350.28C12.9531 350.953 17.6727 351.5 23.4947 351.5Z" fill="#6C63FF"/>
<path opacity="0.1" d="M145.275 386.005C151.097 386.005 155.816 385.459 155.816 384.785C155.816 384.112 151.097 383.565 145.275 383.565C139.453 383.565 134.733 384.112 134.733 384.785C134.733 385.459 139.453 386.005 145.275 386.005Z" fill="#6C63FF"/>
<path opacity="0.1" d="M415.211 356.009C421.032 356.009 425.752 355.463 425.752 354.789C425.752 354.116 421.032 353.569 415.211 353.569C409.389 353.569 404.669 354.116 404.669 354.789C404.669 355.463 409.389 356.009 415.211 356.009Z" fill="#6C63FF"/>
<path opacity="0.1" d="M327.489 350.09C333.311 350.09 338.031 349.544 338.031 348.87C338.031 348.197 333.311 347.65 327.489 347.65C321.667 347.65 316.948 348.197 316.948 348.87C316.948 349.544 321.667 350.09 327.489 350.09Z" fill="#6C63FF"/>
<path opacity="0.1" d="M270.742 378.961C277.627 378.961 283.209 377.968 283.209 376.744C283.209 375.52 277.627 374.527 270.742 374.527C263.856 374.527 258.274 375.52 258.274 376.744C258.274 377.968 263.856 378.961 270.742 378.961Z" fill="#6C63FF"/>
<path d="M276.304 354.461C276.304 354.461 258.944 363.746 267.913 374.683C267.913 374.683 268.756 377.056 271.196 376.89C271.196 376.89 270.71 375.969 272.571 375.233C273.234 374.968 273.863 374.623 274.447 374.203C275.235 373.639 275.824 372.824 276.125 371.882C276.125 371.882 279.674 366.964 276.923 357.864C276.923 357.864 277.28 355.292 276.969 354.874L274.859 357.869C274.859 357.869 277.037 359.383 277.29 361.61C277.29 361.61 274.997 357.874 274.538 358.287C274.437 358.372 273.493 359.925 273.493 359.925C273.493 359.925 277.271 362.578 277.551 366.024C277.551 366.024 275.423 361.197 273.126 360.509L271.81 362.939C271.81 362.939 275.937 365.54 276.395 369.452C276.395 369.452 273.997 364.491 271.549 363.49L270.581 366.058C270.581 366.058 274.561 368.678 274.928 371.934C274.928 371.934 271.599 366.49 270.402 366.661C270.402 366.661 269.65 369.072 269.751 369.817C269.751 369.817 272.562 371.763 272.613 373.676C272.613 373.676 270.017 370.282 269.618 370.506C269.618 370.506 269.453 373.919 270.251 375.694C270.251 375.694 268.876 373.159 269.1 370.506C268.296 371.242 267.718 372.205 267.436 373.278C267.436 373.278 266.688 371.403 269.151 369.675C269.151 369.675 269.385 367.021 269.669 366.694C269.669 366.694 267.005 368.042 265.872 369.694C265.872 369.694 266.289 367.23 269.903 366.005L270.82 363.404C270.82 363.404 267.207 364.99 266.092 366.385C266.092 366.385 266.895 363.941 271.104 362.768L272.351 360.395C272.351 360.395 269.142 361.515 267.573 362.768C267.573 362.768 268.788 360.665 272.736 359.697L273.75 358.202C273.75 358.202 271.42 359.061 270.769 359.369C270.118 359.678 269.99 359.526 269.99 359.526C271.18 358.484 272.626 357.803 274.167 357.561C274.167 357.561 276.464 354.622 276.304 354.461Z" fill="#6C63FF"/>
<path d="M327.829 179.097C324.83 170.661 308.323 169.869 301.161 172.019C296.071 173.552 285.342 175.28 279.61 176.149L279.239 175.783C279.981 175.555 280 174.995 279.908 174.165C279.855 173.07 279.87 171.973 279.954 170.88C283.466 172.009 286.593 169.337 286.593 169.337C290.72 167.438 289.611 159.312 290.399 157.09C290.991 155.429 291.628 145.64 291.912 140.761H291.972L292.004 139.123C292.045 138.416 292.064 138.003 292.064 138.003C292.064 138.003 292.467 126.069 293.256 123.653C293.99 121.431 294.586 110.238 294.677 108.463C294.677 108.311 294.677 108.23 294.677 108.23L294.618 107.195C294.659 106.44 294.677 105.6 294.673 104.717C294.673 100.659 294.265 95.5462 294.214 94.7203C294.214 94.6016 294.214 94.4592 294.214 94.2883C294.246 92.5557 294.035 83.8783 286.905 80.5982C284.278 79.383 281.119 77.9352 278.06 76.5253C277.272 69.4762 275.47 62.465 275.625 55.3636C275.625 54.2955 275.717 53.2275 275.818 52.1642C275.818 52.4727 275.786 52.786 275.781 53.1135C275.781 53.8018 275.781 54.4949 275.781 55.1832C276.052 46.3017 279.294 37.3728 278.991 28.6812C278.964 29.5309 278.904 30.3853 278.826 31.2398C278.984 28.2999 278.687 25.3528 277.946 22.5102C277.671 21.5086 277.299 20.4738 276.506 19.8045C275.756 19.2654 274.896 18.9129 273.993 18.7744C271.823 18.1994 269.619 17.7744 267.395 17.5022C267.057 16.4312 266.555 15.4231 265.909 14.5164C261.26 7.90869 254.373 1.69972 246.229 0.27565C242.144 -0.436387 237.444 0.156977 234.665 3.18076C234.375 3.44639 234.102 3.73185 233.849 4.0352C232.354 5.88175 231.712 8.30743 230.181 10.1492C230.08 10.2727 229.965 10.3866 229.855 10.5053C226.857 13.2822 222.184 13.8613 218.851 16.3534C218.263 16.8008 217.713 17.2978 217.205 17.8392C215.861 19.2172 214.657 20.7329 213.61 22.363C212.11 24.5466 210.57 26.8204 210.093 29.4265C209.134 34.6481 212.569 39.5991 213.206 44.8539C214.628 56.612 202.059 67.0457 204.439 78.6472C205.074 81.4973 206.476 84.1028 208.483 86.1616C203.582 90.7566 199.409 95.2139 199.409 95.2139V95.4798H198.634L198.712 96.4291H198.634L199.061 101.58L198.634 109.08C198.634 109.08 198.634 109.16 198.634 109.312V109.35V109.554C198.634 109.554 198.634 109.635 198.634 109.787H198.662C198.804 112.535 199.368 122.418 200.037 124.502C200.826 126.919 201.225 138.852 201.225 138.852C201.225 138.852 202.096 155.718 202.894 157.949C203.692 160.18 202.559 168.283 206.7 170.196C207.911 171.158 209.345 171.774 210.859 171.981C210.648 173.756 210.781 175.043 211.464 175.446C211.756 175.624 212.088 175.722 212.427 175.731C212.146 176.162 211.896 176.615 211.679 177.084C210.036 176.906 208.421 176.512 206.874 175.911C202.426 174.013 187.666 169.74 183.379 172.745C179.092 175.75 168.775 178.475 173.539 190.57C178.303 202.665 180.522 202.969 180.522 202.969C181.989 204.071 183.275 205.409 184.333 206.933C185.763 209.159 199.093 214.252 202.426 214.252C203.843 214.23 205.26 214.303 206.668 214.471C206.668 214.471 203.05 217.756 203.531 219.664C204.013 221.572 202.431 236.848 202.431 236.848C202.431 236.848 206.099 240.674 207.667 235.656L207.722 235.732C208.016 236.145 209.602 238.011 212.587 235.656C213.809 234.697 215.106 233.845 216.466 233.112L230.919 230.995C232.426 230.897 233.937 230.886 235.445 230.961C237.737 231.156 239.989 229.751 241.406 228.664C244.4 229.841 247.765 231.128 249.366 231.598C252.612 232.547 267.532 236.691 271.022 235.395C271.747 235.096 272.392 234.621 272.902 234.009L276.231 234.118L274.672 234.441C274.672 234.441 277.707 234.493 281.834 234.55L281.66 234.655L286.836 234.607C294.411 234.678 302.922 234.702 304.04 234.441C305.792 234.037 314.894 234.322 317.576 234.441H318.324C318.324 234.441 328.324 232.376 324.197 221.871C321.024 213.801 311.271 211.456 306.943 210.811C308.163 210.559 309.213 210.365 309.91 210.251C312.931 209.776 318.8 206.928 319.277 205.955C319.754 204.982 324.674 202.157 325.944 200.548C327.214 198.939 330.841 187.532 327.829 179.097ZM244.996 202.703L244.505 202.869L244.175 202.983L243.542 203.629C243.038 203.277 242.497 202.907 241.933 202.527C242.928 202.589 243.95 202.651 244.996 202.703Z" fill="url(#paint0_linear)"/>
<path d="M274.231 152.651C274.231 152.651 281.247 171.639 285.236 169.74C289.225 167.841 288.143 159.771 288.904 157.559C289.666 155.347 290.509 138.572 290.509 138.572C290.509 138.572 290.894 126.704 291.656 124.303C292.362 122.095 292.935 110.964 293.031 109.212C293.031 109.06 293.031 108.98 293.031 108.98L292.275 95.2135L287.992 94.1074L278.06 97.905L276.685 106.036L276.148 109.212L275.919 110.565L274.231 152.651Z" fill="#BE6F72"/>
<path opacity="0.1" d="M276.542 149.472C276.542 149.472 283.237 155.144 285.254 155.643C287.272 156.141 288.51 160.565 288.51 160.565" fill="black"/>
<path d="M219.368 153.482C219.368 153.482 212.353 172.47 208.364 170.571C204.375 168.672 205.457 160.603 204.696 158.39C203.934 156.178 203.091 139.403 203.091 139.403C203.091 139.403 202.706 127.536 201.944 125.134C201.238 122.926 200.665 111.795 200.569 110.043C200.569 109.891 200.569 109.811 200.569 109.811L201.33 96.0445L205.613 94.9385L215.544 98.736L216.92 106.867L217.456 110.043L217.686 111.396L219.368 153.482Z" fill="#BE6F72"/>
<path d="M265.052 51.8701H249.393V77.138H265.052V51.8701Z" fill="#3E373A"/>
<path opacity="0.1" d="M265.052 51.8701H249.393V77.138H265.052V51.8701Z" fill="black"/>
<path d="M216.617 172.393C216.617 172.393 211.266 178.484 213.252 179.59C215.237 180.696 228.081 201.425 228.081 201.425C228.081 201.425 270.265 206.804 278.22 198.734C286.176 190.664 286.015 176.248 286.015 176.248C286.015 176.248 279.624 177.672 278.927 176.898C278.23 176.124 274.401 172.393 274.401 172.393C274.401 172.393 220.286 168.995 216.617 172.393Z" fill="#4B4B5B"/>
<path opacity="0.02" d="M216.617 172.393C216.617 172.393 211.266 178.484 213.252 179.59C215.237 180.696 228.081 201.425 228.081 201.425C228.081 201.425 270.265 206.804 278.22 198.734C286.176 190.664 286.015 176.248 286.015 176.248C286.015 176.248 279.624 177.672 278.927 176.898C278.23 176.124 274.401 172.393 274.401 172.393C274.401 172.393 220.286 168.995 216.617 172.393Z" fill="black"/>
<path d="M292.559 95.4134L278.803 106.806L274.644 107.119L273.117 107.233L247.472 109.179L220.877 107.167L216.92 106.868L211.876 106.488L201.33 96.0447C201.33 96.0447 208.795 87.7661 215.334 82.179C217.91 79.9717 220.345 78.1869 222.12 77.4843L222.422 77.3751C223.538 76.9245 224.535 76.2053 225.329 75.277C230.492 69.7658 235.266 56.1659 235.266 56.1659C235.266 56.1659 258.041 43.9854 255.29 59.9635C252.538 75.9416 265.528 71.9921 265.528 71.9921L269.811 74.0143L271.503 74.8166L275.818 76.8625L285.552 81.486C293.191 85.1268 292.559 95.4134 292.559 95.4134Z" fill="#BE6F72"/>
<path opacity="0.1" d="M246.403 69.1765C257.715 69.1765 266.886 59.6829 266.886 47.972C266.886 36.2611 257.715 26.7676 246.403 26.7676C235.091 26.7676 225.921 36.2611 225.921 47.972C225.921 59.6829 235.091 69.1765 246.403 69.1765Z" fill="black"/>
<path opacity="0.1" d="M292.591 110.518H200.569C200.569 110.366 200.569 110.285 200.569 110.285L201.33 96.5195C201.33 96.5195 208.795 88.2408 215.333 82.6537L273.108 80.2803L275.795 77.3467L285.529 81.9702C293.173 85.6063 292.559 95.8929 292.559 95.8929C292.559 95.8929 293.604 107.812 292.591 110.518Z" fill="black"/>
<path d="M292.591 110.043H200.569C200.569 109.892 200.569 109.811 200.569 109.811L201.33 96.0448C201.33 96.0448 208.795 87.7662 215.333 82.1791L273.108 79.8057L275.795 76.8721L285.529 81.4956C293.173 85.1317 292.559 95.4182 292.559 95.4182C292.559 95.4182 293.604 107.338 292.591 110.043Z" fill="#E7C7CA"/>
<path opacity="0.1" d="M231.652 71.4414C231.652 71.4414 246.169 90.5905 265.506 71.0474C284.842 51.5044 267.647 114.638 267.647 114.638L225.921 119.765L231.652 71.4414Z" fill="black"/>
<path d="M231.652 72.3907C231.652 72.3907 246.169 91.5397 265.506 71.9967C284.842 52.4536 267.647 115.588 267.647 115.588L225.921 120.714L231.652 72.3907Z" fill="#E7C7CA"/>
<path opacity="0.1" d="M271.48 75.751L273.016 100.003L274.663 108.073L275.919 114.244C275.919 114.244 279.129 161.713 278.212 164.086C277.294 166.46 278.67 168.359 278.863 169.621C279.055 170.884 278.67 174.055 278.821 175.479C278.973 176.903 278.821 177.534 275.309 177.026C271.797 176.519 266.9 175.636 266.9 175.636C266.9 175.636 254.519 176.585 250.241 175.004C245.963 173.424 237.861 173.419 237.861 173.419C237.861 173.419 225.632 173.737 221.661 173.262C217.69 172.787 215.545 178.327 212.949 176.742C210.354 175.156 216.003 159.814 217.837 155.381C219.671 150.947 215.393 139.716 215.393 139.716L220.896 108.115L222.12 100.952V78.433L222.422 78.3238C223.539 77.8732 224.535 77.154 225.33 76.2257L226.705 98.8875L269.807 100.473V74.9678" fill="black"/>
<path d="M271.48 74.8028L273.016 99.0547L274.663 107.124L275.919 113.295C275.919 113.295 279.129 160.765 278.212 163.138C277.294 165.511 278.67 167.41 278.863 168.673C279.055 169.936 278.67 173.107 278.821 174.531C278.973 175.955 278.821 176.586 275.309 176.078C271.797 175.57 266.9 174.687 266.9 174.687C266.9 174.687 254.519 175.637 250.241 174.056C245.963 172.475 237.861 172.47 237.861 172.47C237.861 172.47 225.632 172.789 221.661 172.314C217.69 171.839 215.545 177.379 212.949 175.793C210.354 174.208 216.003 158.866 217.837 154.432C219.671 149.999 215.393 138.767 215.393 138.767L220.896 107.167L222.12 100.004V77.4848L222.422 77.3756C223.539 76.925 224.535 76.2058 225.33 75.2775L226.705 97.9392L269.807 99.5247V74.0195" fill="#E7C7CA"/>
<path opacity="0.1" d="M276.437 24.191C276.176 23.1989 275.813 22.1688 275.061 21.5042C274.343 20.9704 273.514 20.6192 272.64 20.4789C270.549 19.9095 268.423 19.4877 266.276 19.2162C265.969 18.1622 265.505 17.1643 264.9 16.2589C260.407 9.68914 253.758 3.49443 245.936 2.09409C241.841 1.35831 237.095 2.01813 234.473 5.35996C233.033 7.19702 232.414 9.63218 230.96 11.436C228.159 14.9392 223.101 15.3712 219.57 18.0817C217.686 19.5058 216.32 21.5707 214.985 23.5739C213.541 25.7432 212.055 28.0027 211.597 30.5946C210.68 35.7734 213.986 40.7102 214.595 45.9366C215.971 57.6282 203.866 68.0002 206.154 79.5352C207.488 86.2616 213.49 90.999 219.699 93.4009C221.886 94.2506 224.385 95.0956 225.408 97.2697C225.866 98.2191 225.944 99.3156 226.375 100.274C227.824 103.474 232.588 103.597 235.147 101.267C237.705 98.9359 238.512 95.1668 238.815 91.6493C240.044 76.2883 234.101 61.1124 234.794 45.7135C235 41.0567 236.265 35.7734 240.296 33.6658C245.72 30.8176 252.245 35.5646 258.215 34.6579C261.04 41.7742 261.64 49.6281 259.93 57.1156C258.981 61.2121 257.339 65.1853 257.22 69.4101C257.041 75.8421 260.393 81.7188 263.291 87.4056C263.913 88.469 264.329 89.6476 264.515 90.8756C264.561 92.1215 264.337 93.3622 263.86 94.507C262.223 99.0688 259.398 103.303 259.077 108.159C258.983 108.726 259.106 109.308 259.421 109.783C259.744 110.099 260.161 110.293 260.604 110.333C265.556 111.211 269.839 106.669 272.255 102.107C274.949 97.0683 276.519 91.4692 276.85 85.7205C277.349 76.0557 274.002 66.5477 274.209 56.8735C274.447 45.8749 279.248 34.8003 276.437 24.191Z" fill="black"/>
<path d="M276.895 23.7164C276.634 22.7242 276.272 21.6942 275.52 21.0296C274.802 20.4958 273.972 20.1446 273.099 20.0043C271.007 19.4349 268.881 19.0131 266.734 18.7416C266.428 17.6875 265.964 16.6897 265.359 15.7843C260.865 9.21454 254.217 3.01982 246.394 1.61948C242.3 0.883705 237.554 1.54352 234.931 4.88535C233.491 6.72241 232.872 9.15757 231.419 10.9614C228.617 14.4646 223.56 14.8966 220.029 17.6071C218.144 19.0312 216.778 21.0961 215.444 23.0993C213.999 25.2686 212.514 27.5281 212.055 30.1199C211.138 35.2988 214.444 40.2356 215.054 45.462C216.43 57.1536 204.324 67.5256 206.612 79.0606C207.947 85.787 213.949 90.5244 220.157 92.9263C222.344 93.776 224.843 94.621 225.866 96.7951C226.325 97.7445 226.402 98.841 226.833 99.7999C228.282 102.999 233.047 103.123 235.605 100.792C238.164 98.4613 238.971 94.6922 239.273 91.1747C240.502 75.8137 234.56 60.6378 235.252 45.2389C235.458 40.5821 236.724 35.2988 240.754 33.1912C246.179 30.343 252.704 35.09 258.674 34.1833C261.499 41.2996 262.098 49.1535 260.388 56.6409C259.439 60.7375 257.798 64.7107 257.679 68.9354C257.5 75.3675 260.852 81.2442 263.749 86.931C264.371 87.9944 264.787 89.173 264.974 90.401C265.019 91.6469 264.795 92.8876 264.318 94.0324C262.681 98.5942 259.857 102.828 259.536 107.684C259.442 108.251 259.565 108.834 259.879 109.308C260.203 109.624 260.619 109.818 261.062 109.859C266.015 110.737 270.297 106.194 272.714 101.632C275.408 96.5937 276.978 90.9946 277.308 85.2458C277.808 75.5811 274.461 66.0731 274.667 56.3988C274.905 45.4002 279.706 34.3257 276.895 23.7164Z" fill="#3E373A"/>
<path d="M266.767 233.895L284.956 234.498L282.347 220.532L268.413 221.904L266.767 233.895Z" fill="#C3C7D9"/>
<path d="M323.129 200.795C321.904 202.376 317.168 205.224 316.709 206.173C316.251 207.123 310.597 209.971 307.69 210.446C304.783 210.92 295.617 212.981 293.934 214.087C292.728 214.884 283.049 217.409 276.689 218.81C274.966 219.232 273.223 219.556 271.466 219.783C268.715 219.94 238.608 209.34 238.608 209.34L244.413 203.169L244.734 203.055C246.376 202.48 253.96 199.827 258.169 198.564C262.91 197.14 268.413 191.287 268.413 191.287C268.413 191.287 276.51 188.439 277.583 188.121C278.656 187.803 274.832 177.046 274.832 177.046C274.832 177.046 292.407 174.521 299.285 172.38C306.163 170.239 322.06 171.032 324.963 179.42C327.865 187.808 324.371 199.214 323.129 200.795Z" fill="#4B4B5B"/>
<path d="M243.038 227.535C243.038 227.535 239.525 231.332 236.008 231.019C232.491 230.705 220.194 231.968 220.194 231.968C217.965 232.888 215.878 234.141 213.999 235.685C211.124 238.03 209.597 236.16 209.313 235.761L209.263 235.685C207.731 240.674 204.219 236.872 204.219 236.872C204.219 236.872 205.746 221.682 205.278 219.783C204.81 217.884 208.3 214.623 208.3 214.623L212.426 213.536L222.881 210.764L237.861 216.142L243.038 227.535Z" fill="#E7C7CA"/>
<path opacity="0.1" d="M212.408 213.536L209.313 235.761L209.263 235.685C207.731 240.674 204.219 236.872 204.219 236.872C204.219 236.872 205.746 221.682 205.278 219.783C204.81 217.884 208.3 214.623 208.3 214.623L212.408 213.536Z" fill="black"/>
<path opacity="0.1" d="M234.042 150.316C234.042 150.316 242.139 153.165 249.173 150.316H234.042Z" fill="black"/>
<path opacity="0.1" d="M261.686 155.698C261.686 155.698 265.047 157.436 267.647 155.698H261.686Z" fill="black"/>
<path opacity="0.1" d="M261.686 159.82C261.686 159.82 267.34 160.603 268.413 159.022L261.686 159.82Z" fill="black"/>
<path opacity="0.1" d="M259.852 168.672C259.852 168.672 270.472 167.248 273.108 165.35L259.852 168.672Z" fill="black"/>
<path opacity="0.1" d="M227.448 165.35C227.448 165.35 233.409 168.829 237.843 168.672L227.448 165.35Z" fill="black"/>
<path opacity="0.1" d="M276.685 218.81C274.962 219.232 273.219 219.557 271.462 219.783C268.711 219.94 238.604 209.34 238.604 209.34L244.409 203.169L244.73 203.055C245.647 203.724 246.399 204.298 246.935 204.735C249.462 206.795 251.901 204.104 252.818 204.104C253.735 204.104 261.682 210.906 261.682 210.906C261.682 210.906 269.018 212.648 270.242 214.229C271.467 215.81 275.745 215.496 276.506 216.602C276.735 216.944 276.763 217.784 276.685 218.81Z" fill="black"/>
<path d="M220.194 177.691C220.194 177.691 212.775 178.132 208.497 176.267C204.219 174.401 190.005 170.096 185.878 173.12C181.751 176.143 171.815 178.816 176.4 190.845C180.986 202.873 183.127 203.187 183.127 203.187C184.546 204.288 185.784 205.618 186.795 207.127C188.171 209.343 201.01 214.404 204.219 214.404C207.429 214.404 213.083 214.404 221.029 220.1C228.975 225.796 236.16 226.432 236.16 226.432C236.16 226.432 246.248 230.705 249.389 231.654C252.53 232.603 266.882 236.714 270.247 235.451C273.613 234.189 275.75 226.271 275.75 226.271C275.75 226.271 277.276 219.151 276.511 218.044C275.745 216.938 271.467 217.252 270.247 215.671C269.028 214.09 261.686 212.348 261.686 212.348C261.686 212.348 253.759 205.541 252.841 205.541C251.924 205.541 249.485 208.228 246.959 206.172C241.926 202.313 236.638 198.824 231.135 195.729C225.33 192.563 220.194 177.691 220.194 177.691Z" fill="#4B4B5B"/>
<path opacity="0.1" d="M205.278 182.282C206.599 182.003 207.965 182.043 209.268 182.399C210.572 182.756 211.778 183.419 212.794 184.338C216.462 187.504 228.805 193.86 228.805 193.86" fill="black"/>
<path opacity="0.1" d="M296.992 182.082C296.992 182.082 280.637 184.645 277.583 188.125L296.992 182.082Z" fill="black"/>
<path d="M315.792 234.498H315.073C312.486 234.403 303.724 234.118 302.037 234.498C300.051 234.973 273.759 234.498 273.759 234.498L278.899 233.392C278.899 233.392 276.992 226.471 278.202 225.897C278.202 225.897 271.324 221.207 276.51 218.041C281.696 214.874 287.286 216.208 287.286 216.208L300.303 211.642L302.802 210.764C302.802 210.764 317.475 211.556 321.446 222C325.417 232.443 315.792 234.498 315.792 234.498Z" fill="#E7C7CA"/>
<path opacity="0.1" d="M315.792 234.497H315.072C319.341 230.851 328.998 219.753 300.303 211.664L302.802 210.786C302.802 210.786 317.475 211.579 321.446 222.022C325.417 232.465 315.792 234.497 315.792 234.497Z" fill="black"/>
<path d="M288.817 222.194C289.26 222.194 289.62 221.822 289.62 221.363C289.62 220.904 289.26 220.532 288.817 220.532C288.374 220.532 288.015 220.904 288.015 221.363C288.015 221.822 288.374 222.194 288.817 222.194Z" fill="#4B4B5B"/>
<path d="M284.154 223.566C284.597 223.566 284.956 223.194 284.956 222.735C284.956 222.276 284.597 221.904 284.154 221.904C283.711 221.904 283.352 222.276 283.352 222.735C283.352 223.194 283.711 223.566 284.154 223.566Z" fill="#4B4B5B"/>
<g opacity="0.1">
<path opacity="0.1" d="M261.434 47.189C261.612 41.9677 260.715 36.7671 258.802 31.9324C252.841 32.8533 246.312 28.0921 240.883 30.9403C236.866 33.0479 235.605 38.3312 235.381 42.9879C235.326 44.2174 235.316 45.4468 235.339 46.6763C235.339 46.2396 235.339 45.7981 235.381 45.3614C235.592 40.7047 236.852 35.4214 240.883 33.3137C246.312 30.4656 252.832 35.2125 258.802 34.3058C260.422 38.401 261.314 42.7655 261.434 47.189Z" fill="black"/>
<path opacity="0.1" d="M215.242 46.3204C215.321 45.2861 215.301 44.2462 215.183 43.2159C214.697 39.0386 212.491 35.0465 212.092 30.9736C211.579 35.8867 214.6 40.6051 215.183 45.5894C215.242 45.8457 215.242 46.0736 215.242 46.3204Z" fill="black"/>
<path opacity="0.1" d="M239.402 88.9177C239.117 92.4399 238.315 96.2042 235.733 98.5397C233.152 100.875 228.397 100.747 226.962 97.5476C226.503 96.5982 226.435 95.4922 225.99 94.5428C224.972 92.3687 222.468 91.5238 220.281 90.6741C214.068 88.2674 208.075 83.5537 206.741 76.8083C206.622 76.1972 206.54 75.5789 206.498 74.957C206.385 76.3701 206.467 77.7926 206.741 79.1818C208.075 85.9082 214.077 90.6408 220.281 93.0475C222.468 93.8972 224.972 94.7422 225.99 96.9162C226.448 97.8656 226.526 98.9622 226.962 99.921C228.406 103.12 233.17 103.244 235.733 100.913C238.297 98.5824 239.094 94.8134 239.402 91.2912C239.541 89.4373 239.589 87.5772 239.544 85.7183C239.544 86.7958 239.484 87.8591 239.402 88.9177Z" fill="black"/>
<path opacity="0.1" d="M274.818 54.1472C274.818 54.8355 274.818 55.5191 274.818 56.2027C275.075 47.3734 278.202 38.4967 277.895 29.8525C277.656 37.8463 274.992 46.0205 274.818 54.1472Z" fill="black"/>
<path opacity="0.1" d="M264.978 89.8637C265.091 89.3004 265.127 88.7235 265.084 88.15C264.899 86.9215 264.483 85.7425 263.86 84.68C261.209 79.4584 258.188 74.1134 257.83 68.3174C257.83 68.5642 257.798 68.7921 257.793 69.0579C257.61 75.4852 260.962 81.3667 263.86 87.0535C264.352 87.9343 264.728 88.8794 264.978 89.8637Z" fill="black"/>
<path opacity="0.1" d="M277.455 82.9943C277.113 88.7453 275.532 94.3442 272.829 99.3807C270.408 103.942 266.129 108.485 261.173 107.607C260.729 107.567 260.311 107.371 259.99 107.052C259.897 106.943 259.824 106.817 259.774 106.681C259.719 107.052 259.673 107.427 259.646 107.806C259.551 108.372 259.675 108.953 259.99 109.425C260.311 109.745 260.729 109.941 261.173 109.981C266.129 110.859 270.408 106.316 272.829 101.754C275.532 96.7176 277.113 91.1188 277.455 85.3678C277.51 84.257 277.515 83.151 277.483 82.0449C277.473 82.363 277.473 82.6763 277.455 82.9943Z" fill="black"/>
</g>
<path opacity="0.1" d="M278.202 225.896C278.202 225.896 289.807 230.938 297.46 219.782" stroke="black" stroke-width="0.65895" stroke-miterlimit="10"/>
<path opacity="0.1" d="M280.486 234.707C280.486 234.707 289.964 228.327 302.037 234.498" stroke="black" stroke-width="0.65895" stroke-miterlimit="10"/>
<path opacity="0.1" d="M217.044 233.258C217.044 233.258 221.024 223.964 231.653 231.051" stroke="black" stroke-width="0.65895" stroke-miterlimit="10"/>
<path opacity="0.1" d="M204.141 95.8078L212.257 88.2127C212.257 88.2127 243.726 86.0766 245.028 97.1512C245.028 97.1512 256.184 84.0212 279.647 86.9453L289.574 95.129L262.136 107.594L235.472 117.169L215.834 108.069L204.141 95.8078Z" fill="black"/>
<path d="M204.141 96.2814L212.257 88.6864C212.257 88.6864 243.726 86.5502 245.028 97.6248C245.028 97.6248 256.184 84.4948 279.647 87.4189L289.574 95.6026L262.136 108.068L235.472 117.643L215.834 108.543L204.141 96.2814Z" fill="#D5D6DB"/>
<path opacity="0.1" d="M200.551 97.2314L204.141 141.696L242.199 143.675L240.548 99.4008L240.516 98.6555L200.551 97.2314Z" fill="black"/>
<path d="M200.551 96.2822L204.141 140.747L242.199 142.726L240.548 98.4516L240.516 97.7063L200.551 96.2822Z" fill="#6C63FF"/>
<path opacity="0.1" d="M291.316 96.2822L252.057 102.377V147.041L290.422 141.302L291.316 96.2822Z" fill="black"/>
<path d="M291.316 95.332L252.057 101.427V146.091L290.422 140.352L291.316 95.332Z" fill="#6C63FF"/>
<path opacity="0.3" d="M282.058 106.231L260.852 108.671L261.315 116.153L282.045 113.808L282.058 106.231Z" fill="white"/>
<path d="M206.204 164.557L208.364 170.571C208.364 170.571 211.574 173.42 215.086 171.996C218.598 170.571 221.661 169.864 223.188 168.478C224.715 167.092 226.856 160.128 226.856 160.128C226.856 160.128 228.998 152.533 231.134 150.634C233.271 148.736 238.929 122.575 231.134 125.134C223.339 127.693 217.379 151.427 217.379 151.427C217.379 151.427 216.003 153.165 214.018 153.326C212.032 153.487 208.057 153.008 207.291 154.75C206.525 156.492 203.912 161.078 206.204 164.557Z" fill="#BE6F72"/>
<path opacity="0.1" d="M252.057 102.372C250.047 102.841 247.959 102.816 245.96 102.3C243.96 101.784 242.106 100.791 240.543 99.4004L242.199 143.67C242.199 143.67 246.096 148.037 252.057 147.04V102.372Z" fill="black"/>
<path d="M252.057 101.423C250.047 101.892 247.959 101.867 245.96 101.351C243.96 100.835 242.106 99.842 240.543 98.4512L242.199 142.721C242.199 142.721 246.096 147.088 252.057 146.091V101.423Z" fill="#6C63FF"/>
<path opacity="0.1" d="M252.057 101.423C250.047 101.892 247.959 101.867 245.96 101.351C243.96 100.835 242.106 99.842 240.543 98.4512L242.199 142.721C242.199 142.721 246.096 147.088 252.057 146.091V101.423Z" fill="black"/>
<path opacity="0.1" d="M252.974 96.4336C252.974 96.4336 268.945 91.3782 273.108 92.0902L252.974 96.4336Z" fill="black"/>
<path opacity="0.1" d="M235.11 94.2259C235.11 94.2259 219.63 90.4284 217.044 91.506L235.11 94.2259Z" fill="black"/>
<path opacity="0.1" d="M263.043 97.0652C263.043 97.0652 273.723 93.0114 277.583 94.9386L263.043 97.0652Z" fill="black"/>
<path opacity="0.1" d="M257.665 198.758C259.32 197.471 261.081 196.339 262.929 195.373C265.68 194.002 270.724 190.441 270.724 190.441" fill="black"/>
<path opacity="0.1" d="M217.044 150.316C217.044 150.316 210.345 155.989 208.332 156.487C206.319 156.986 205.076 161.41 205.076 161.41" fill="black"/>
<path d="M287.378 163.712L285.241 169.74C285.241 169.74 282.031 172.588 278.514 171.164C274.997 169.74 271.943 169.033 270.412 167.647C268.88 166.261 266.744 159.297 266.744 159.297C266.744 159.297 264.607 151.702 262.466 149.803C260.324 147.905 254.671 121.744 262.466 124.303C270.261 126.861 276.222 150.596 276.222 150.596C276.222 150.596 277.597 152.333 279.583 152.495C281.568 152.656 285.543 152.177 286.309 153.919C287.075 155.661 289.67 160.247 287.378 163.712Z" fill="#BE6F72"/>
<path opacity="0.1" d="M283.631 152.623C283.631 152.623 288.01 155.538 287.992 159.022L283.631 152.623Z" fill="black"/>
<path d="M246.477 68.1374C257.789 68.1374 266.959 58.6439 266.959 46.933C266.959 35.2221 257.789 25.7285 246.477 25.7285C235.165 25.7285 225.995 35.2221 225.995 46.933C225.995 58.6439 235.165 68.1374 246.477 68.1374Z" fill="#BE6F72"/>
<path d="M233.615 41.2413C236.101 40.8378 238.279 39.3425 240.654 38.4833C245.968 36.5513 251.846 37.8757 257.225 39.6178C259.288 40.2871 261.384 41.0419 263.548 41.0419C265.712 41.0419 268.009 40.1257 269.114 38.1937C270.132 36.4184 269.935 34.1114 269.078 32.2459C268.22 30.3803 266.785 28.8803 265.336 27.4657C260.568 22.8042 254.653 18.4466 248.109 18.9213C245.477 19.1159 242.96 20.089 240.539 21.1666C237.491 22.5266 234.523 24.0736 231.653 25.7995C229.447 27.1239 225.362 28.8945 224.092 31.3155C221.203 36.7697 229.122 41.9723 233.615 41.2413Z" fill="#3E373A"/>
<path opacity="0.1" d="M269.114 36.2C268.009 38.132 265.712 39.0481 263.548 39.0481C261.384 39.0481 259.288 38.3219 257.22 37.6525C251.842 35.9104 245.968 34.5813 240.649 36.518C238.278 37.3772 236.096 38.8915 233.611 39.2712C229.988 39.8599 224.156 36.594 223.523 32.4404C222.812 37.2396 229.576 41.3504 233.611 40.6953C236.096 40.2918 238.278 38.7965 240.649 37.9421C245.968 36.0054 251.842 37.3345 257.22 39.0766C259.288 39.7459 261.379 40.5007 263.548 40.4722C265.717 40.4437 268.009 39.5608 269.114 37.6241C269.687 36.5704 269.913 35.3522 269.756 34.1541C269.685 34.8754 269.466 35.5728 269.114 36.2Z" fill="black"/>
<path d="M435.335 293.459C435.335 293.459 438.054 297.138 434.079 302.696C430.103 308.255 426.829 312.945 428.15 316.41C428.15 316.41 434.147 306.091 439.026 305.943C443.905 305.796 440.695 299.663 435.335 293.459Z" fill="#6C63FF"/>
<path opacity="0.1" d="M435.335 293.459C435.572 293.814 435.759 294.203 435.89 294.612C440.649 300.404 443.189 305.81 438.609 305.943C434.345 306.072 429.232 313.966 428.008 315.955C428.047 316.115 428.094 316.274 428.15 316.429C428.15 316.429 434.147 306.109 439.026 305.962C443.905 305.815 440.695 299.663 435.335 293.459Z" fill="black"/>
<path d="M440.379 298.149C440.379 299.445 440.237 300.494 440.067 300.494C439.897 300.494 439.75 299.445 439.75 298.149C439.75 296.854 439.925 297.466 440.099 297.466C440.273 297.466 440.379 296.854 440.379 298.149Z" fill="#FFD037"/>
<path d="M442.117 299.696C441.021 300.314 440.062 300.689 439.98 300.532C439.897 300.375 440.718 299.744 441.814 299.108C442.91 298.472 442.479 298.937 442.561 299.108C442.644 299.279 443.217 299.075 442.117 299.696Z" fill="#FFD037"/>
<path d="M420.965 293.459C420.965 293.459 418.246 297.138 422.221 302.696C426.196 308.255 429.47 312.945 428.145 316.41C428.145 316.41 422.152 306.091 417.269 305.943C412.386 305.796 415.618 299.663 420.965 293.459Z" fill="#6C63FF"/>
<path opacity="0.1" d="M420.965 293.459C420.728 293.814 420.541 294.203 420.41 294.612C415.65 300.404 413.11 305.81 417.691 305.943C421.95 306.072 427.068 313.966 428.292 315.955C428.253 316.116 428.204 316.275 428.145 316.429C428.145 316.429 422.152 306.109 417.269 305.962C412.386 305.815 415.618 299.663 420.965 293.459Z" fill="black"/>
<path d="M415.912 298.149C415.912 299.445 416.049 300.494 416.223 300.494C416.398 300.494 416.54 299.445 416.54 298.149C416.54 296.854 416.361 297.466 416.191 297.466C416.022 297.466 415.912 296.854 415.912 298.149Z" fill="#FFD037"/>
<path d="M414.179 299.696C415.274 300.314 416.233 300.689 416.315 300.532C416.398 300.375 415.577 299.744 414.481 299.108C413.385 298.472 413.816 298.937 413.734 299.108C413.651 299.279 413.078 299.075 414.179 299.696Z" fill="#FFD037"/>
<path opacity="0.1" d="M428.149 344.569C443.85 344.569 456.578 342.548 456.578 340.054C456.578 337.561 443.85 335.54 428.149 335.54C412.449 335.54 399.721 337.561 399.721 340.054C399.721 342.548 412.449 344.569 428.149 344.569Z" fill="#6C63FF"/>
<path d="M442.782 311.451L442.644 312.6L442.452 314.223L442.374 314.902L442.181 316.525L442.098 317.204L441.91 318.823L439.732 337.288C439.54 338.935 436.94 340.222 433.799 340.222H422.496C419.356 340.222 416.76 338.935 416.563 337.288L414.385 318.823L414.193 317.204L414.115 316.525L413.922 314.902L413.839 314.223L413.651 312.6L413.514 311.451C413.408 310.501 414.812 309.732 416.591 309.732H439.71C441.484 309.732 442.892 310.516 442.782 311.451Z" fill="#65617D"/>
<path d="M442.644 312.599L442.456 314.222H413.843L413.651 312.599H442.644Z" fill="#9D9CB5"/>
<path d="M442.373 314.901L442.185 316.525H414.114L413.921 314.901H442.373Z" fill="#9D9CB5"/>
<path d="M442.103 317.203L441.91 318.827H414.385L414.197 317.203H442.103Z" fill="#9D9CB5"/>
</g>
<defs>
<linearGradient id="paint0_linear" x1="250.649" y1="238.257" x2="250.649" y2="0.00032754" gradientUnits="userSpaceOnUse">
<stop stop-color="#808080" stop-opacity="0.25"/>
<stop offset="0.54" stop-color="#808080" stop-opacity="0.12"/>
<stop offset="1" stop-color="#808080" stop-opacity="0.1"/>
</linearGradient>
<clipPath id="clip0">
<rect width="469" height="386" fill="white"/>
</clipPath>
</defs>
</svg>
