<svg width="45" height="40" viewBox="0 0 45 40" fill="none" xmlns="http://www.w3.org/2000/svg">
<path d="M44.2969 14.3242C44.7656 14.7344 45 15.2617 45 15.9062C45 16.5508 44.7656 17.0781 44.2969 17.4883L28.8281 30.8477C28.125 31.4336 27.3633 31.5508 26.543 31.1992C25.7227 30.7891 25.3125 30.1445 25.3125 29.2656V21.5312C22.4414 21.5898 20.0098 21.7949 18.0176 22.1465C16.0254 22.4395 14.2969 22.9668 12.832 23.7285C11.3672 24.4316 10.2832 25.3984 9.58008 26.6289C8.93555 27.8594 8.61328 29.4121 8.61328 31.2871C8.61328 33.1621 8.99414 35.3594 9.75586 37.8789C9.99023 38.582 9.78516 39.1387 9.14062 39.5488C8.55469 39.959 7.93945 39.9297 7.29492 39.4609C5.24414 37.9961 3.51562 36.0332 2.10938 33.5723C0.703125 31.0527 0 28.5039 0 25.9258C0 23.3477 0.439453 21.0918 1.31836 19.1582C2.19727 17.2246 3.36914 15.6719 4.83398 14.5C6.29883 13.2695 8.14453 12.3027 10.3711 11.5996C12.5977 10.8379 14.8828 10.3398 17.2266 10.1055C19.5703 9.8125 22.2656 9.63672 25.3125 9.57812V2.54688C25.3125 1.66797 25.7227 1.05273 26.543 0.701172C27.3633 0.291016 28.125 0.378906 28.8281 0.964844L44.2969 14.3242Z" fill="white"/>
<path d="M44.2969 14.3242L44.6261 13.9479L44.6237 13.9458L44.2969 14.3242ZM44.2969 17.4883L44.6237 17.8667L44.6261 17.8646L44.2969 17.4883ZM28.8281 30.8477L29.1483 31.2318L29.1549 31.2261L28.8281 30.8477ZM26.543 31.1992L26.3194 31.6464L26.3325 31.653L26.346 31.6588L26.543 31.1992ZM25.3125 21.5312H25.8125V21.0209L25.3023 21.0314L25.3125 21.5312ZM18.0176 22.1465L18.0903 22.6412L18.0974 22.6401L18.1045 22.6389L18.0176 22.1465ZM12.832 23.7285L13.0484 24.1793L13.0556 24.1758L13.0627 24.1721L12.832 23.7285ZM9.58008 26.6289L9.14596 26.3808L9.14141 26.3888L9.13716 26.3969L9.58008 26.6289ZM9.75586 37.8789L9.27706 38.0237L9.28152 38.037L9.75586 37.8789ZM9.14062 39.5488L8.87219 39.127L8.86291 39.1329L8.85389 39.1392L9.14062 39.5488ZM7.29492 39.4609L7.58902 39.0566L7.58554 39.0541L7.29492 39.4609ZM2.10938 33.5723L1.67275 33.816L1.67525 33.8203L2.10938 33.5723ZM4.83398 14.5L5.14642 14.8905L5.15558 14.8829L4.83398 14.5ZM10.3711 11.5996L10.5217 12.0765L10.5329 12.0727L10.3711 11.5996ZM17.2266 10.1055L17.2763 10.6031L17.2886 10.6016L17.2266 10.1055ZM25.3125 9.57812L25.3221 10.078L25.8125 10.0686V9.57812H25.3125ZM26.543 0.701172L26.7399 1.16074L26.7534 1.15496L26.7666 1.14839L26.543 0.701172ZM28.8281 0.964844L29.155 0.586374L29.1482 0.580733L28.8281 0.964844ZM43.9676 14.7005C44.3236 15.012 44.5 15.4002 44.5 15.9062H45.5C45.5 15.1233 45.2076 14.4567 44.6261 13.9479L43.9676 14.7005ZM44.5 15.9062C44.5 16.4123 44.3236 16.8005 43.9676 17.112L44.6261 17.8646C45.2076 17.3558 45.5 16.6892 45.5 15.9062H44.5ZM43.9701 17.1099L28.5013 30.4692L29.1549 31.2261L44.6237 17.8667L43.9701 17.1099ZM28.508 30.4635C28.2131 30.7093 27.9289 30.8384 27.6535 30.8808C27.3789 30.9231 27.078 30.8845 26.7399 30.7396L26.346 31.6588C26.8283 31.8655 27.3184 31.9441 27.8055 31.8692C28.2918 31.7944 28.74 31.5719 29.1482 31.2318L28.508 30.4635ZM26.7666 30.752C26.4212 30.5793 26.1894 30.3715 26.0419 30.1398C25.8952 29.9092 25.8125 29.6246 25.8125 29.2656H24.8125C24.8125 29.7855 24.9348 30.2626 25.1983 30.6766C25.461 31.0894 25.8445 31.409 26.3194 31.6464L26.7666 30.752ZM25.8125 29.2656V21.5312H24.8125V29.2656H25.8125ZM25.3023 21.0314C22.4152 21.0903 19.9563 21.2966 17.9307 21.6541L18.1045 22.6389C20.0633 22.2932 22.4676 22.0894 25.3227 22.0311L25.3023 21.0314ZM17.9448 21.6518C15.9092 21.9512 14.1251 22.4925 12.6014 23.2849L13.0627 24.1721C14.4686 23.441 16.1416 22.9277 18.0903 22.6412L17.9448 21.6518ZM12.6157 23.2778C11.0732 24.0181 9.90654 25.0498 9.14596 26.3808L10.0142 26.877C10.6599 25.7471 11.6612 24.8451 13.0484 24.1793L12.6157 23.2778ZM9.13716 26.3969C8.44434 27.7196 8.11328 29.3583 8.11328 31.2871H9.11328C9.11328 29.4659 9.42675 27.9992 10.023 26.8609L9.13716 26.3969ZM8.11328 31.2871C8.11328 33.2265 8.5066 35.4745 9.27725 38.0236L10.2345 37.7342C9.48168 35.2442 9.11328 33.0978 9.11328 31.2871H8.11328ZM9.28152 38.037C9.37197 38.3084 9.36298 38.5034 9.30866 38.6509C9.25364 38.8002 9.12886 38.9637 8.87219 39.127L9.40906 39.9707C9.79692 39.7238 10.0969 39.4039 10.247 38.9966C10.3978 38.5874 10.3741 38.1526 10.2302 37.7208L9.28152 38.037ZM8.85389 39.1392C8.63638 39.2915 8.4433 39.3436 8.26353 39.335C8.07827 39.3262 7.8553 39.2502 7.58901 39.0566L7.00084 39.8653C7.37907 40.1404 7.78599 40.3134 8.21596 40.3339C8.65143 40.3546 9.05893 40.2163 9.42736 39.9584L8.85389 39.1392ZM7.58554 39.0541C5.60042 37.6361 3.91842 35.7303 2.5435 33.3242L1.67525 33.8203C3.11283 36.3361 4.88786 38.3561 7.0043 39.8678L7.58554 39.0541ZM2.54597 33.3286C1.17625 30.8745 0.5 28.4088 0.5 25.9258H-0.5C-0.5 28.599 0.230001 31.231 1.67278 33.8159L2.54597 33.3286ZM0.5 25.9258C0.5 23.4041 0.929791 21.2214 1.77354 19.3651L0.863176 18.9513C-0.0508844 20.9622 -0.5 23.2912 -0.5 25.9258H0.5ZM1.77354 19.3651C2.62426 17.4935 3.75055 16.0071 5.14633 14.8904L4.52164 14.1096C2.98773 15.3367 1.77027 16.9557 0.863176 18.9513L1.77354 19.3651ZM5.15558 14.8829C6.56037 13.7028 8.34428 12.764 10.5217 12.0764L10.2205 11.1228C7.94478 11.8415 6.03729 12.8362 4.51239 14.1171L5.15558 14.8829ZM10.5329 12.0727C12.7232 11.3234 14.9707 10.8335 17.2763 10.603L17.1768 9.60795C14.7949 9.84614 12.4721 10.3524 10.2092 11.1265L10.5329 12.0727ZM17.2886 10.6016C19.6108 10.3113 22.288 10.1364 25.3221 10.078L25.3029 9.07822C22.2432 9.13706 19.5298 9.31367 17.1645 9.60933L17.2886 10.6016ZM25.8125 9.57812V2.54688H24.8125V9.57812H25.8125ZM25.8125 2.54688C25.8125 2.18718 25.8955 1.91463 26.0361 1.70362C26.1772 1.49208 26.4003 1.30631 26.7399 1.16074L26.346 0.241599C25.8654 0.447594 25.4732 0.745227 25.2041 1.14892C24.9346 1.55314 24.8125 2.02766 24.8125 2.54688H25.8125ZM26.7666 1.14839C27.1071 0.978099 27.4053 0.925385 27.6722 0.956177C27.939 0.98696 28.2165 1.10605 28.508 1.34895L29.1482 0.580733C28.7366 0.237701 28.2817 0.0198763 27.7868 -0.0372318C27.2919 -0.0943305 26.7991 0.0140888 26.3194 0.253958L26.7666 1.14839ZM28.5013 1.34326L43.9701 14.7026L44.6237 13.9458L29.1549 0.586432L28.5013 1.34326Z" fill="black"/>
</svg>
