<svg width="47" height="47" viewBox="0 0 47 47" fill="none" xmlns="http://www.w3.org/2000/svg">
<path d="M10.1406 20.3125C10.7266 20.3125 11.2246 20.5176 11.6348 20.9277C12.0449 21.3379 12.25 21.8359 12.25 22.4219V43.5156C12.25 44.1016 12.0449 44.5996 11.6348 45.0098C11.2246 45.4199 10.7266 45.625 10.1406 45.625H3.10938C2.52344 45.625 2.02539 45.4199 1.61523 45.0098C1.20508 44.5996 1 44.1016 1 43.5156V22.4219C1 21.8359 1.20508 21.3379 1.61523 20.9277C2.02539 20.5176 2.52344 20.3125 3.10938 20.3125H10.1406ZM5.13086 41.4941C5.54102 41.9043 6.03906 42.1094 6.625 42.1094C7.21094 42.1094 7.70898 41.9043 8.11914 41.4941C8.5293 41.084 8.73438 40.5859 8.73438 40C8.73438 39.4141 8.5293 38.916 8.11914 38.5059C7.70898 38.0957 7.21094 37.8906 6.625 37.8906C6.03906 37.8906 5.54102 38.0957 5.13086 38.5059C4.7207 38.916 4.51562 39.4141 4.51562 40C4.51562 40.5859 4.7207 41.084 5.13086 41.4941ZM34.75 7.74414C34.75 9.20898 34.2812 10.8789 33.3438 12.7539C32.4062 14.5703 31.9082 15.6836 31.8496 16.0938H40.7266C42.1914 16.0938 43.4219 16.6211 44.418 17.6758C45.4727 18.6719 46 19.8438 46 21.1914C46 22.9492 45.4434 24.3848 44.3301 25.498H44.2422C44.7109 26.4941 44.8867 27.666 44.7695 29.0137C44.6523 30.3613 44.2129 31.5332 43.4512 32.5293C43.8027 33.7012 43.832 34.9023 43.5391 36.1328C43.2461 37.3047 42.748 38.3008 42.0449 39.1211C42.3965 40.6445 42.2207 41.9336 41.5176 42.9883C40.9316 43.8086 40.0234 44.4238 38.793 44.834C37.5625 45.2441 36.4492 45.4785 35.4531 45.5371C34.5156 45.5957 33.1973 45.625 31.498 45.625H31.2344C28.4219 45.625 24.9062 44.6875 20.6875 42.8125C18.6367 41.875 17.1133 41.4062 16.1172 41.4062C15.8242 41.4062 15.5605 41.2891 15.3262 41.0547C15.1504 40.8789 15.0625 40.6445 15.0625 40.3516V21.543C15.0625 21.25 15.1797 21.0156 15.4141 20.8398C16.5859 19.6094 17.9336 17.8809 19.457 15.6543C21.0391 13.3691 22.2988 11.7871 23.2363 10.9082C24.0566 10.0293 24.7891 8.30078 25.4336 5.72266C26.2539 2.32422 27.25 0.625 28.4219 0.625C29.0664 0.625 29.6816 0.712891 30.2676 0.888672C30.9121 1.00586 31.5859 1.29883 32.2891 1.76758C33.0508 2.17773 33.6367 2.91016 34.0469 3.96484C34.5156 5.01953 34.75 6.2793 34.75 7.74414Z" fill="black"/>
<path d="M33.3438 12.7539L33.7881 12.9832L33.791 12.9775L33.3438 12.7539ZM31.8496 16.0938L31.3546 16.023L31.2731 16.5938H31.8496V16.0938ZM44.418 17.6758L44.0545 18.0191L44.0643 18.0295L44.0747 18.0393L44.418 17.6758ZM44.3301 25.498V25.998H44.5372L44.6836 25.8516L44.3301 25.498ZM44.2422 25.498V24.998H43.4543L43.7898 25.7109L44.2422 25.498ZM43.4512 32.5293L43.054 32.2256L42.8989 32.4284L42.9723 32.673L43.4512 32.5293ZM43.5391 36.1328L44.0242 36.2541L44.0255 36.2486L43.5391 36.1328ZM42.0449 39.1211L41.6653 38.7957L41.5009 38.9874L41.5577 39.2335L42.0449 39.1211ZM41.5176 42.9883L41.9244 43.2789L41.9291 43.2723L41.9336 43.2656L41.5176 42.9883ZM35.4531 45.5371L35.4238 45.038L35.4219 45.0381L35.4531 45.5371ZM20.6875 42.8125L20.4796 43.2673L20.4844 43.2694L20.6875 42.8125ZM15.4141 20.8398L15.7141 21.2398L15.7474 21.2148L15.7761 21.1847L15.4141 20.8398ZM19.457 15.6543L19.0459 15.3697L19.0444 15.372L19.457 15.6543ZM23.2363 10.9082L23.5783 11.273L23.5905 11.2616L23.6019 11.2494L23.2363 10.9082ZM25.4336 5.72266L25.9187 5.84393L25.9196 5.83998L25.4336 5.72266ZM30.2676 0.888672L30.1239 1.36759L30.1507 1.37561L30.1781 1.38061L30.2676 0.888672ZM32.2891 1.76758L32.0117 2.1836L32.0313 2.19666L32.052 2.20781L32.2891 1.76758ZM34.0469 3.96484L33.5809 4.14607L33.5852 4.1571L33.59 4.16791L34.0469 3.96484ZM10.1406 20.8125C10.5955 20.8125 10.9659 20.966 11.2812 21.2813L11.9883 20.5742C11.4833 20.0692 10.8577 19.8125 10.1406 19.8125V20.8125ZM11.2812 21.2813C11.5965 21.5966 11.75 21.967 11.75 22.4219H12.75C12.75 21.7048 12.4933 21.0792 11.9883 20.5742L11.2812 21.2813ZM11.75 22.4219V43.5156H12.75V22.4219H11.75ZM11.75 43.5156C11.75 43.9705 11.5965 44.3409 11.2812 44.6562L11.9883 45.3633C12.4933 44.8583 12.75 44.2327 12.75 43.5156H11.75ZM11.2812 44.6562C10.9659 44.9715 10.5955 45.125 10.1406 45.125V46.125C10.8577 46.125 11.4833 45.8683 11.9883 45.3633L11.2812 44.6562ZM10.1406 45.125H3.10938V46.125H10.1406V45.125ZM3.10938 45.125C2.65453 45.125 2.28411 44.9715 1.96879 44.6562L1.26168 45.3633C1.76667 45.8683 2.39234 46.125 3.10938 46.125V45.125ZM1.96879 44.6562C1.65346 44.3409 1.5 43.9705 1.5 43.5156H0.5C0.5 44.2327 0.756692 44.8583 1.26168 45.3633L1.96879 44.6562ZM1.5 43.5156V22.4219H0.5V43.5156H1.5ZM1.5 22.4219C1.5 21.967 1.65346 21.5966 1.96879 21.2813L1.26168 20.5742C0.756692 21.0792 0.5 21.7048 0.5 22.4219H1.5ZM1.96879 21.2813C2.28411 20.966 2.65453 20.8125 3.10938 20.8125V19.8125C2.39234 19.8125 1.76667 20.0692 1.26168 20.5742L1.96879 21.2813ZM3.10938 20.8125H10.1406V19.8125H3.10938V20.8125ZM4.77731 41.8477C5.2823 42.3527 5.90797 42.6094 6.625 42.6094V41.6094C6.17016 41.6094 5.79974 41.4559 5.48441 41.1406L4.77731 41.8477ZM6.625 42.6094C7.34203 42.6094 7.9677 42.3527 8.47269 41.8477L7.76559 41.1406C7.45026 41.4559 7.07984 41.6094 6.625 41.6094V42.6094ZM8.47269 41.8477C8.97768 41.3427 9.23438 40.717 9.23438 40H8.23438C8.23438 40.4548 8.08091 40.8253 7.76559 41.1406L8.47269 41.8477ZM9.23438 40C9.23438 39.283 8.97768 38.6573 8.47269 38.1523L7.76559 38.8594C8.08091 39.1747 8.23438 39.5452 8.23438 40H9.23438ZM8.47269 38.1523C7.9677 37.6473 7.34203 37.3906 6.625 37.3906V38.3906C7.07984 38.3906 7.45026 38.5441 7.76559 38.8594L8.47269 38.1523ZM6.625 37.3906C5.90797 37.3906 5.2823 37.6473 4.77731 38.1523L5.48441 38.8594C5.79974 38.5441 6.17016 38.3906 6.625 38.3906V37.3906ZM4.77731 38.1523C4.27232 38.6573 4.01562 39.283 4.01562 40H5.01562C5.01562 39.5452 5.16909 39.1747 5.48441 38.8594L4.77731 38.1523ZM4.01562 40C4.01562 40.717 4.27232 41.3427 4.77731 41.8477L5.48441 41.1406C5.16909 40.8253 5.01562 40.4548 5.01562 40H4.01562ZM34.25 7.74414C34.25 9.10525 33.8133 10.6968 32.8965 12.5303L33.791 12.9775C34.7492 11.061 35.25 9.31272 35.25 7.74414H34.25ZM32.8994 12.5246C32.4289 13.4363 32.0652 14.1781 31.8107 14.747C31.5663 15.2933 31.3955 15.7372 31.3546 16.023L32.3446 16.1645C32.3623 16.0401 32.4698 15.7223 32.7235 15.1554C32.967 14.611 33.3211 13.8879 33.7881 12.9832L32.8994 12.5246ZM31.8496 16.5938H40.7266V15.5938H31.8496V16.5938ZM40.7266 16.5938C42.0554 16.5938 43.1539 17.0655 44.0545 18.0191L44.7815 17.3325C43.6899 16.1767 42.3275 15.5938 40.7266 15.5938V16.5938ZM44.0747 18.0393C45.0379 18.949 45.5 19.9926 45.5 21.1914H46.5C46.5 19.6949 45.9074 18.3948 44.7613 17.3123L44.0747 18.0393ZM45.5 21.1914C45.5 22.8335 44.9847 24.1363 43.9765 25.1445L44.6836 25.8516C45.902 24.6332 46.5 23.0649 46.5 21.1914H45.5ZM44.3301 24.998H44.2422V25.998H44.3301V24.998ZM43.7898 25.7109C44.2132 26.6108 44.3827 27.6906 44.2714 28.9704L45.2677 29.057C45.3907 27.6414 45.2086 26.3775 44.6946 25.2851L43.7898 25.7109ZM44.2714 28.9704C44.1618 30.2312 43.7535 31.3109 43.054 32.2256L43.8484 32.833C44.6723 31.7555 45.1429 30.4915 45.2677 29.057L44.2714 28.9704ZM42.9723 32.673C43.2976 33.7576 43.326 34.8692 43.0527 36.017L44.0255 36.2486C44.3381 34.9355 44.3078 33.6448 43.9301 32.3856L42.9723 32.673ZM43.054 36.0115C42.7776 37.1171 42.3122 38.041 41.6653 38.7957L42.4246 39.4465C43.1839 38.5606 43.7146 37.4923 44.0241 36.2541L43.054 36.0115ZM41.5577 39.2335C41.8861 40.6563 41.7111 41.7966 41.1016 42.7109L41.9336 43.2656C42.7303 42.0706 42.9069 40.6327 42.5321 39.0087L41.5577 39.2335ZM41.1107 42.6977C40.6017 43.4102 39.7939 43.9733 38.6349 44.3596L38.9511 45.3083C40.253 44.8743 41.2615 44.207 41.9244 43.2789L41.1107 42.6977ZM38.6349 44.3596C37.4343 44.7598 36.3652 44.9826 35.4238 45.038L35.4825 46.0362C36.5332 45.9744 37.6907 45.7285 38.9511 45.3083L38.6349 44.3596ZM35.4219 45.0381C34.4999 45.0957 33.1937 45.125 31.498 45.125V46.125C33.2008 46.125 34.5313 46.0957 35.4843 46.0361L35.4219 45.0381ZM31.498 45.125H31.2344V46.125H31.498V45.125ZM31.2344 45.125C28.5227 45.125 25.0813 44.2182 20.8906 42.3556L20.4844 43.2694C24.7312 45.1568 28.3211 46.125 31.2344 46.125V45.125ZM20.8954 42.3578C18.8416 41.4189 17.2313 40.9062 16.1172 40.9062V41.9062C16.9953 41.9062 18.4319 42.3311 20.4796 43.2672L20.8954 42.3578ZM16.1172 40.9062C15.9747 40.9062 15.8338 40.8552 15.6797 40.7011L14.9726 41.4082C15.2873 41.723 15.6738 41.9062 16.1172 41.9062V40.9062ZM15.6797 40.7011C15.6143 40.6357 15.5625 40.5374 15.5625 40.3516H14.5625C14.5625 40.7517 14.6865 41.1221 14.9726 41.4082L15.6797 40.7011ZM15.5625 40.3516V21.543H14.5625V40.3516H15.5625ZM15.5625 21.543C15.5625 21.4074 15.6056 21.3212 15.7141 21.2398L15.1141 20.4398C14.7538 20.7101 14.5625 21.0926 14.5625 21.543H15.5625ZM15.7761 21.1847C16.974 19.9269 18.3388 18.1741 19.8697 15.9366L19.0444 15.372C17.5284 17.5876 16.1979 19.2918 15.052 20.495L15.7761 21.1847ZM19.8681 15.9389C21.4477 13.6573 22.6822 12.113 23.5783 11.273L22.8944 10.5434C21.9154 11.4612 20.6304 13.081 19.0459 15.3697L19.8681 15.9389ZM23.6019 11.2494C24.517 10.2688 25.2728 8.4273 25.9187 5.84392L24.9485 5.60139C24.3053 8.17426 23.5963 9.78976 22.8708 10.567L23.6019 11.2494ZM25.9196 5.83998C26.3257 4.1576 26.7661 2.939 27.2272 2.15227C27.6986 1.34826 28.11 1.125 28.4219 1.125V0.125C27.5618 0.125 26.8893 0.75135 26.3645 1.64655C25.8296 2.55904 25.3618 3.88928 24.9476 5.60534L25.9196 5.83998ZM28.4219 1.125C29.0204 1.125 29.587 1.20652 30.1239 1.36759L30.4113 0.409759C29.7763 0.219262 29.1125 0.125 28.4219 0.125V1.125ZM30.1781 1.38061C30.7391 1.48259 31.3496 1.7422 32.0117 2.1836L32.5664 1.35155C31.8223 0.855457 31.0851 0.529124 30.357 0.396737L30.1781 1.38061ZM32.052 2.20781C32.6804 2.54616 33.2003 3.1675 33.5809 4.14607L34.5129 3.78362C34.0731 2.65281 33.4212 1.80931 32.5261 1.32734L32.052 2.20781ZM33.59 4.16791C34.0238 5.14393 34.25 6.33109 34.25 7.74414H35.25C35.25 6.22751 35.0075 4.89513 34.5038 3.76177L33.59 4.16791Z" fill="white"/>
</svg>
