<svg width="34" height="46" viewBox="0 0 34 46" fill="none" xmlns="http://www.w3.org/2000/svg">
<path d="M0 45.0195V4.23828C0 3.06641 0.410156 2.07031 1.23047 1.25C2.05078 0.429688 3.04688 0.0195312 4.21875 0.0195312H29.5312C30.7031 0.0195312 31.6992 0.429688 32.5195 1.25C33.3398 2.07031 33.75 3.06641 33.75 4.23828V45.0195L16.875 35.1758L0 45.0195Z" fill="white"/>
<path d="M0 45.0195H-0.5V45.89L0.251936 45.4514L0 45.0195ZM33.75 45.0195L33.4981 45.4514L34.25 45.89V45.0195H33.75ZM16.875 35.1758L17.1269 34.7439L16.875 34.5969L16.6231 34.7439L16.875 35.1758ZM0.5 45.0195V4.23828H-0.5V45.0195H0.5ZM0.5 4.23828C0.5 3.1975 0.858543 2.32903 1.58402 1.60355L0.876915 0.896447C-0.0382301 1.81159 -0.5 2.93531 -0.5 4.23828H0.5ZM1.58402 1.60355C2.3095 0.878074 3.17797 0.519531 4.21875 0.519531V-0.480469C2.91578 -0.480469 1.79206 -0.0186988 0.876915 0.896447L1.58402 1.60355ZM4.21875 0.519531H29.5312V-0.480469H4.21875V0.519531ZM29.5312 0.519531C30.572 0.519531 31.4405 0.878074 32.166 1.60355L32.8731 0.896447C31.9579 -0.0186988 30.8342 -0.480469 29.5312 -0.480469V0.519531ZM32.166 1.60355C32.8915 2.32903 33.25 3.1975 33.25 4.23828H34.25C34.25 2.93531 33.7882 1.81159 32.8731 0.896447L32.166 1.60355ZM33.25 4.23828V45.0195H34.25V4.23828H33.25ZM34.0019 44.5876L17.1269 34.7439L16.6231 35.6077L33.4981 45.4514L34.0019 44.5876ZM16.6231 34.7439L-0.251936 44.5876L0.251936 45.4514L17.1269 35.6077L16.6231 34.7439Z" fill="black"/>
</svg>
